<svg id="_Lager_" data-name="&lt;Lager&gt;" xmlns="http://www.w3.org/2000/svg" viewBox="0 0 257.36 226.5"><defs><style>.cls-1{fill:#aea8a5;}</style></defs><title>Rityta 2alcro</title><path class="cls-1" d="M139.76,172.44a31.87,31.87,0,0,0-15-3.47c-17.64,0-28.46,11.53-28.46,28.76s10.82,28.77,28.46,28.77c5.95,0,10.79-1,15-3.48,2.24-1.3,2.56-2.56,2.56-4.19V215.5c0-1.34-.64-2.53-2.13-2.53a9.3,9.3,0,0,0-3.41,1.08,27.22,27.22,0,0,1-11.56,2.67c-11,0-17.17-7.42-17.17-19s6.22-19,17.17-19a26.93,26.93,0,0,1,11.56,2.84,8.67,8.67,0,0,0,3.41,1.07c1.49,0,2.13-1.18,2.13-2.52v-3.48A4.08,4.08,0,0,0,139.76,172.44Z"/><path class="cls-1" d="M202.69,30A28.4,28.4,0,0,0,219.12,6c0-4.18-.2-6-1.91-6-1.38,0-2.44,1.09-3.44,2.33A32.17,32.17,0,0,1,203,10.71c-3.22,1.52-4.8,1.92-6.43,2.87a17.4,17.4,0,0,0-6,5.42h-.46c-.5-1.55-2.51-3.37-5.61-3.63a30.5,30.5,0,0,1-6.75-1.08c-4.24-1.18-6-3.07-8.57-4.48a2.28,2.28,0,0,0-1.35-.42c-.74,0-1.29.53-1.29,3.35a17.49,17.49,0,0,0,3.11,8.88c6.52,8.31,9,7.28,12.57,9.78,2.2,1.58,3.56,3.4,3.56,5.85,0,12.7-9,32.48-29.72,32.48-6.27,0-7.88-2.36-7.88-7.17,0-.45.1-2.49.19-4.14.08-1,.13-3.06.13-3.49,0-3.7-.56-5.84-3.76-5.84-2.37,0-5.51,1.62-8.34,6.66-4.34,7.88-4.64,10.08-6.51,11.85-1.32,1.23-4.09,1.94-6.89,2.38-8.06,1.25-33.07,4.76-42.82,13.52C72.73,90.18,65.65,99,64,112.74a10.12,10.12,0,0,1-.34,2.15,8,8,0,0,1-1.21,1.79c-1.69,2.21-4.28,4.68-6.5,8.21a9.18,9.18,0,0,0-1.07,3.5c0,5.07,3.43,7.1,7.75,7.1A24,24,0,0,0,73,133.11a76.09,76.09,0,0,1,31.23-6.91,51.76,51.76,0,0,1,11.4,1.12A61.93,61.93,0,0,1,130,133.11c5.92,3.16,8.62,3.28,11.08,3.28a25.59,25.59,0,0,0,10-2.31c2.76-1.19,4.53-2.73,4.53-4.64,0-.67-.47-.92-1-1.21-3.72-1.76-10.54-3-21.58-4.08-.07,0-.24,0-.24-.17,0-.29,1.27-.67,2-.85a112.23,112.23,0,0,0,30.9-12.5C193.67,93.68,198.09,69,198.09,46.35c0-3.75-.52-8.1-.52-11.06a3.26,3.26,0,0,1,.4-1.44A9.89,9.89,0,0,1,202.69,30Z"/><path class="cls-1" d="M90.24,215.7H73.44c-2.74,0-4.1-1.1-4.1-4.18V172.68c0-2.39-1-3.19-3.13-3.19H61c-2.2,0-3.15.8-3.15,3.19v41.1c0,8.46,4,12.18,11.48,12.18h20.9c2.21,0,3.15-.79,3.15-3.19V218.9C93.39,216.52,92.45,215.7,90.24,215.7Z"/><path class="cls-1" d="M186.8,206.61c-1.43-2.27-3.69-5.25-4.75-5.65v-.43a8.46,8.46,0,0,0,1.53-.3c6.12-1.87,9.73-6.41,9.73-13.89,0-10.62-7.55-16.85-18.22-16.85H165c-7.52,0-11.5,3.7-11.5,12.17v41.11c0,2.38,1,3.19,3.16,3.19h5.19c2.19,0,3.13-.81,3.13-3.19V202.86h4.59a5.35,5.35,0,0,1,5.06,3l8.54,16.3c1.56,2.71,3,3.75,5.6,3.75h6c1.36,0,2-.73,2-1.67a4.52,4.52,0,0,0-.82-2.09Zm-12.87-12.5h-9V182.18c0-2.54,1.33-4,4-4h5c4.31,0,8,1.76,8,7.82S178.18,194.11,173.93,194.11Z"/><path class="cls-1" d="M229.65,169c-16.14,0-27.73,11.67-27.73,28.76s11.89,28.77,27.73,28.77,27.71-11.68,27.71-28.77S245.78,169,229.65,169Zm0,47.75c-9.8,0-16-7-16-19s6.2-19,16-19,16,7,16,19S239.44,216.72,229.65,216.72Z"/><path class="cls-1" d="M33.1,174.05c-1-3-2.14-4.56-5.46-4.56H21.29c-3.33,0-4.53,1.58-5.48,4.56L.17,222.63c-.49,1.51,0,3.33,2.44,3.33H8.14c2.57,0,3.15-1.35,3.82-3.75l2.88-10.27H34.08L37,222.21c.67,2.4,1.24,3.75,3.81,3.75h6.09c2.47,0,3-1.78,2.46-3.33ZM17.55,202.29l5.19-18.51c.47-1.63,1.15-4.38,1.34-5.44h.76c.18,1.06.88,3.81,1.33,5.44l5.2,18.51Z"/></svg>