<?xml version="1.0" encoding="utf-8"?>
<!-- Generator: Adobe Illustrator 19.2.0, SVG Export Plug-In . SVG Version: 6.00 Build 0)  -->
<!DOCTYPE svg PUBLIC "-//W3C//DTD SVG 1.1//EN" "http://www.w3.org/Graphics/SVG/1.1/DTD/svg11.dtd">
<svg version="1.1" xmlns="http://www.w3.org/2000/svg" xmlns:xlink="http://www.w3.org/1999/xlink" x="0px" y="0px"
	 viewBox="0 0 149.7 49.7" style="enable-background:new 0 0 149.7 49.7;" xml:space="preserve">
<style type="text/css">
	.st0{fill:#034EA0;}
	.st1{fill:#00A94E;}
	.st2{fill:#231F20;}
	.st3{display:none;}
	.st4{display:inline;}
	.st5{fill:#FFFFFF;}
</style>
<g id="Graphics">
	<g>
		<g>
			<polygon class="st0" points="25,23.8 25,23.8 25,23.8 			"/>
			<path class="st0" d="M12.7,20.7c0,0.9,0.8,1.7,1.7,1.7c0.9,0,1.7-0.8,1.7-1.7c0-0.9-0.8-1.7-1.7-1.7C13.4,19,12.7,19.7,12.7,20.7
				z"/>
			<path class="st0" d="M11,25.9c0.9,0,3.4,0,4.1,1.3l0,0l0,0c0.3,0.4,1.1,1.4-0.1,3.8c-1.2,2.4-1.2,4.8-0.9,5.8l0,0l0,0
				c0.8,2.8,2.9,5,5.6,5.8l0.1,0l0.1,0c3-0.8,4.9-3.5,5.5-6c0.1-0.7,0.6-2.7-0.8-5.7c-1.1-2.4-0.5-3.2-0.1-3.8l0,0l0,0
				c0.7-1.4,2.7-1.3,4.7-1.3c0.5,0,2.1,0,2.1,0l0-8.5l-2.5,0l0,6c-0.4,0-0.8,0-1.1,0c-1,0-1.9,0-2.8,0.3c-1.6,0.6-2.7,1.9-3.2,3.8
				c-0.5,1.8,0.1,3.3,0.7,4.7c0.3,0.8,0.6,1.6,0.8,2.4c0.2,2.3-1.2,4.6-3.3,5.6l-0.1,0c0,0,0,0-0.1,0c-1.9-0.9-3.6-3-3.4-5.6
				c0.1-0.5,0.3-1.2,0.7-2c0.6-1.4,1.3-3.2,0.9-5.1l0,0l0,0c-0.6-2.1-1.8-3.4-3.7-3.9c-1.2-0.3-3.3-0.2-3.3-0.2l0-6l-2.6,0l0,8.5
				C8.4,25.9,10.3,25.9,11,25.9z"/>
			<polygon class="st0" points="7.5,25.9 7.5,17.4 3.4,17.4 6.8,21.7 3.4,25.9 			"/>
		</g>
		<g>
			<path class="st1" d="M31.4,11.1c0-3.4,1.6-4.3,3.6-5.1H18.8c-2.2,0-4.1,1.6-4.5,3.8V6L8.4,6v10.6h23V11.1z"/>
		</g>
		<g>
			<polygon class="st2" points="43.7,36 48.4,36 48.4,21.6 53.6,21.6 53.6,17.4 38.3,17.4 38.3,21.6 43.7,21.6 			"/>
			<polygon class="st2" points="69,31.8 59.9,31.8 59.9,28.3 67.9,28.3 67.9,24.6 59.9,24.6 59.9,21.3 68.8,21.3 68.8,17.4 
				55.2,17.4 55.2,36 69,36 			"/>
			<polygon class="st2" points="89.4,36 82.2,26.7 89.4,17.4 83.4,17.4 77,26.7 83.5,36 			"/>
			<polygon class="st2" points="76.5,30.3 76.5,24.6 76.5,17.4 71.4,17.4 71.4,36 76.5,36 			"/>
			<polygon class="st2" points="95.4,25 95.5,25 102.3,36 107.3,36 107.3,17.4 102.7,17.4 102.7,28.4 102.6,28.4 95.8,17.4 
				90.7,17.4 90.7,36 95.4,36 			"/>
			<path class="st2" d="M118.5,36.4c5.8,0,9.1-4.3,9.1-9.7c0-5.4-3.3-9.7-9.1-9.7c-5.8,0-9.1,4.3-9.1,9.7
				C109.4,32.1,112.7,36.4,118.5,36.4z M118.5,21.2c3.1,0,4.3,2.8,4.3,5.5c0,2.8-1.2,5.5-4.3,5.5c-3.1,0-4.3-2.8-4.3-5.5
				C114.2,24,115.4,21.2,118.5,21.2z"/>
			<path class="st2" d="M138.4,30.9c0,1.5-1.6,1.8-3.3,1.8c-2.2,0-4.1-0.5-5.5-1.2l-0.5,4.1c1.8,0.5,4.1,0.8,5.9,0.8
				c4.4,0,8.7-1.3,8.7-6.2c0-6.8-9.4-4.7-9.4-7.7c0-1.6,2.2-1.7,3.6-1.7c1.5,0,3,0.3,4.4,0.9l0.3-3.9c-1.3-0.4-3.2-0.7-5.1-0.7
				c-4,0-8.6,1.2-8.6,5.7C129,29.6,138.4,27.4,138.4,30.9z"/>
		</g>
	</g>
</g>
<g id="Graphics_copy" class="st3">
	<g class="st4">
		<g>
			<polygon class="st5" points="25,23.8 25,23.8 25,23.8 			"/>
			<path class="st5" d="M12.7,20.7c0,0.9,0.8,1.7,1.7,1.7c0.9,0,1.7-0.8,1.7-1.7c0-0.9-0.8-1.7-1.7-1.7C13.4,19,12.7,19.7,12.7,20.7
				z"/>
			<path class="st5" d="M11,25.9c0.9,0,3.4,0,4.1,1.3l0,0l0,0c0.3,0.4,1.1,1.4-0.1,3.8c-1.2,2.4-1.2,4.8-0.9,5.8l0,0l0,0
				c0.8,2.8,2.9,5,5.6,5.8l0.1,0l0.1,0c3-0.8,4.9-3.5,5.5-6c0.1-0.7,0.6-2.7-0.8-5.7c-1.1-2.4-0.5-3.2-0.1-3.8l0,0l0,0
				c0.7-1.4,2.7-1.3,4.7-1.3c0.5,0,2.1,0,2.1,0l0-8.5l-2.5,0l0,6c-0.4,0-0.8,0-1.1,0c-1,0-1.9,0-2.8,0.3c-1.6,0.6-2.7,1.9-3.2,3.8
				c-0.5,1.8,0.1,3.3,0.7,4.7c0.3,0.8,0.6,1.6,0.8,2.4c0.2,2.3-1.2,4.6-3.3,5.6l-0.1,0c0,0,0,0-0.1,0c-1.9-0.9-3.6-3-3.4-5.6
				c0.1-0.5,0.3-1.2,0.7-2c0.6-1.4,1.3-3.2,0.9-5.1l0,0l0,0c-0.6-2.1-1.8-3.4-3.7-3.9c-1.2-0.3-3.3-0.2-3.3-0.2l0-6l-2.6,0l0,8.5
				C8.4,25.9,10.3,25.9,11,25.9z"/>
			<polygon class="st5" points="7.5,25.9 7.5,17.4 3.4,17.4 6.8,21.7 3.4,25.9 			"/>
		</g>
		<g>
			<path class="st5" d="M31.4,11.1c0-3.4,1.6-4.3,3.6-5.1H18.8c-2.2,0-4.1,1.6-4.5,3.8V6L8.4,6v10.6h23V11.1z"/>
		</g>
		<g>
			<polygon class="st5" points="43.7,36 48.4,36 48.4,21.6 53.6,21.6 53.6,17.4 38.3,17.4 38.3,21.6 43.7,21.6 			"/>
			<polygon class="st5" points="69,31.8 59.9,31.8 59.9,28.3 67.9,28.3 67.9,24.6 59.9,24.6 59.9,21.3 68.8,21.3 68.8,17.4 
				55.2,17.4 55.2,36 69,36 			"/>
			<polygon class="st5" points="89.4,36 82.2,26.7 89.4,17.4 83.4,17.4 77,26.7 83.5,36 			"/>
			<polygon class="st5" points="76.5,30.3 76.5,24.6 76.5,17.4 71.4,17.4 71.4,36 76.5,36 			"/>
			<polygon class="st5" points="95.4,25 95.5,25 102.3,36 107.3,36 107.3,17.4 102.7,17.4 102.7,28.4 102.6,28.4 95.8,17.4 
				90.7,17.4 90.7,36 95.4,36 			"/>
			<path class="st5" d="M118.5,36.4c5.8,0,9.1-4.3,9.1-9.7c0-5.4-3.3-9.7-9.1-9.7c-5.8,0-9.1,4.3-9.1,9.7
				C109.4,32.1,112.7,36.4,118.5,36.4z M118.5,21.2c3.1,0,4.3,2.8,4.3,5.5c0,2.8-1.2,5.5-4.3,5.5c-3.1,0-4.3-2.8-4.3-5.5
				C114.2,24,115.4,21.2,118.5,21.2z"/>
			<path class="st5" d="M138.4,30.9c0,1.5-1.6,1.8-3.3,1.8c-2.2,0-4.1-0.5-5.5-1.2l-0.5,4.1c1.8,0.5,4.1,0.8,5.9,0.8
				c4.4,0,8.7-1.3,8.7-6.2c0-6.8-9.4-4.7-9.4-7.7c0-1.6,2.2-1.7,3.6-1.7c1.5,0,3,0.3,4.4,0.9l0.3-3.9c-1.3-0.4-3.2-0.7-5.1-0.7
				c-4,0-8.6,1.2-8.6,5.7C129,29.6,138.4,27.4,138.4,30.9z"/>
		</g>
	</g>
</g>
</svg>
